# xmcd
#
# Track frame offsets: 
#        183
#        23870
#        87050
#        144913
#
# Disc length: 2358 seconds
#
# Revision: 6
# Processed by: cddbd v1.5.2PL0 Copyright (c) Steve Scherf et al.
# Submitted via: ExactAudioCopy v0.99pb5
#
DISCID=25093404
DTITLE=Don Cherry - Brown rice [Jazz Heritage]
DYEAR=1989
DGENRE=Blues, Jazz
TTITLE0=Brown rice
TTITLE1=Malkauns
TTITLE2=Chenrezig
TTITLE3=Degi-Degi
EXTD=
EXTT0=
EXTT1=
EXTT2=
EXTT3=
PLAYORDER=
